<svg width="34" height="34" viewBox="0 0 34 34" fill="none" xmlns="http://www.w3.org/2000/svg">
<circle r="16" transform="matrix(-1 0 0 1 17 17)" fill="white"/>
<path d="M17 0C26.3744 0 34 7.62563 34 17C34 26.3744 26.3744 34 17 34C7.62563 34 0 26.3744 0 17C0 7.62563 7.62563 0 17 0ZM13.4584 11.3334C13.4584 11.5215 13.5331 11.7014 13.6659 11.8342L18.8317 17L13.6658 22.1659C13.533 22.2987 13.4583 22.4785 13.4583 22.6667V24.7917C13.4583 25.0781 13.6312 25.3368 13.8954 25.4461C14.1597 25.5526 14.4654 25.4945 14.6674 25.2925L22.4591 17.5008C22.7358 17.2241 22.7358 16.7759 22.4591 16.4992L14.6675 8.70759C14.5319 8.57199 14.3507 8.50007 14.1666 8.50007C14.0753 8.50007 13.9826 8.51806 13.8955 8.55405C13.6313 8.66336 13.4584 8.92208 13.4584 9.20842V11.3334Z" fill="#363636"/>
</svg>
