<svg width="34" height="34" viewBox="0 0 34 34" fill="none" xmlns="http://www.w3.org/2000/svg">
<circle cx="17" cy="17" r="16" fill="white"/>
<path d="M17 0C7.62563 0 0 7.62563 0 17C0 26.3744 7.62563 34 17 34C26.3744 34 34 26.3744 34 17C34 7.62563 26.3744 0 17 0ZM20.5416 11.3334C20.5416 11.5215 20.4669 11.7014 20.3341 11.8342L15.1683 17L20.3342 22.1659C20.467 22.2987 20.5417 22.4785 20.5417 22.6667V24.7917C20.5417 25.0781 20.3688 25.3368 20.1046 25.4461C19.8403 25.5526 19.5346 25.4945 19.3326 25.2925L11.5409 17.5008C11.2642 17.2241 11.2642 16.7759 11.5409 16.4992L19.3325 8.70759C19.4681 8.57199 19.6493 8.50007 19.8334 8.50007C19.9247 8.50007 20.0174 8.51806 20.1045 8.55405C20.3687 8.66336 20.5416 8.92208 20.5416 9.20842V11.3334Z" fill="#363636"/>
</svg>
